<svg class="icon" style="width: 20; height: 20; vertical-align: middle; fill: currentcolor; overflow: hidden; font-size: 20px;" viewBox="0 0 1024 1024" version="1.1" xmlns="http://www.w3.org/2000/svg" p-id="2087"><path d="M512 0c-282.769622 0-512 229.230378-512 512 0 282.768726 229.230378 512 512 512S1024 794.768726 1024 512C1024 229.230378 794.769622 0 512 0zM821.234102 799.104345c0 35.634878-29.330397 64.787836-65.1696 64.787836L558.612829 863.892181c-1.347824-8.70798-2.986003-20.639445-2.370341-23.569886 0.993841-4.755917 3.924282-5.928094 3.924282-5.928094 29.543683-12.465576 50.270952-41.575518 50.270952-75.494251 0-45.274864-36.920867-81.980652-82.465474-81.980652-45.542815 0-82.465474 36.705788-82.465474 81.980652 0 33.042289 19.679658 61.506101 48.010838 74.480695 0 0 3.583741 1.587098 5.185178 5.746173 1.001906 2.622162-1.312873 15.551948-3.163442 24.765362l-195.659354 0c-35.842787 0-65.170496-29.15475-65.170496-64.787836L234.709496 602.461007c-6.142276-0.997425-11.635732-1.622048-13.247923-1.009972-4.186856 1.587098-5.783812 5.149331-5.783812 5.149331-13.050768 28.166287-41.67768 47.729444-74.917125 47.729444-45.542815 0-82.464578-36.707581-82.464578-81.980652 0-45.276656 36.920867-81.982444 82.464578-81.982444 34.121265 0 63.399685 20.602702 75.938746 49.976115 0 0 1.181138 2.912518 5.961252 3.901878 1.728691 0.358464 6.573328-0.054666 12.047966-0.726785l0-197.925741c0-35.635774 29.327709-64.787836 65.170496-64.787836L496.906885 280.804345c1.407866-7.731166 2.557639-15.650526 1.795007-17.638207-1.601437-4.161764-5.185178-5.74707-5.185178-5.74707-28.330284-12.974594-48.010838-41.434821-48.010838-74.480695 0-45.276656 36.922659-81.980652 82.465474-81.980652 45.544608 0 82.464578 36.703996 82.464578 81.980652 0 33.920525-20.725476 63.025091-50.270952 75.496043 0 0-2.930441 1.176657-3.924282 5.922717-0.457041 2.181252 0.332475 9.339772 1.320939 16.448108l198.501972 0c35.839202 0 65.1696 29.152062 65.1696 64.787836l0 196.795684c-8.223158 1.204438-17.783385 2.39633-20.368805 1.856842-4.778321-0.98936-5.959459-3.901878-5.959459-3.901878-12.539061-29.373413-41.818377-49.976115-75.938746-49.976115-45.544608 0-82.469059 36.704892-82.469059 81.982444 0 45.273967 36.924451 81.980652 82.469059 81.980652 33.238548 0 61.866357-19.563157 74.918917-47.729444 0 0 1.597852-3.562233 5.781124-5.149331 2.331806-0.885405 12.77027 0.81192 21.568762 2.490427L821.234999 799.104345z" p-id="2088"></path></svg>